{
	"asset":{
		"generator":"Khronos glTF Blender I/O v3.6.27",
		"version":"2.0"
	},
	"scene":0,
	"scenes":[
		{
			"name":"Scene",
			"nodes":[
				0
			]
		}
	],
	"nodes":[
		{
			"mesh":0,
			"name":"buddha",
			"rotation":[
				0.7071068286895752,
				0,
				0,
				0.7071068286895752
			]
		}
	],
	"materials":[
		{
			"doubleSided":true,
			"name":"Glass - Optimized",
			"pbrMetallicRoughness":{}
		}
	],
	"meshes":[
		{
			"name":"buddha",
			"primitives":[
				{
					"attributes":{
						"POSITION":0,
						"NORMAL":1,
						"TEXCOORD_0":2,
						"TEXCOORD_1":3
					},
					"indices":4,
					"material":0
				}
			]
		}
	],
	"accessors":[
		{
			"bufferView":0,
			"componentType":5126,
			"count":66936,
			"max":[
				0.09374400228261948,
				0.0939989984035492,
				0.12230200320482254
			],
			"min":[
				-0.09374400228261948,
				-0.0939989984035492,
				-0.18594899773597717
			],
			"type":"VEC3"
		},
		{
			"bufferView":1,
			"componentType":5126,
			"count":66936,
			"type":"VEC3"
		},
		{
			"bufferView":2,
			"componentType":5126,
			"count":66936,
			"type":"VEC2"
		},
		{
			"bufferView":3,
			"componentType":5126,
			"count":66936,
			"type":"VEC2"
		},
		{
			"bufferView":4,
			"componentType":5125,
			"count":191985,
			"type":"SCALAR"
		}
	],
	"bufferViews":[
		{
			"buffer":0,
			"byteLength":803232,
			"byteOffset":0,
			"target":34962
		},
		{
			"buffer":0,
			"byteLength":803232,
			"byteOffset":803232,
			"target":34962
		},
		{
			"buffer":0,
			"byteLength":535488,
			"byteOffset":1606464,
			"target":34962
		},
		{
			"buffer":0,
			"byteLength":535488,
			"byteOffset":2141952,
			"target":34962
		},
		{
			"buffer":0,
			"byteLength":767940,
			"byteOffset":2677440,
			"target":34963
		}
	],
	"buffers":[
		{
			"byteLength":3445380,
			"uri":"buddha.bin"
		}
	]
}
