{
	"asset":{
		"generator":"Khronos glTF Blender I/O v4.0.6",
		"version":"2.0"
	},
	"extensionsUsed":[
		"KHR_materials_specular",
		"KHR_materials_ior"
	],
	"scene":0,
	"scenes":[
		{
			"name":"Scene",
			"nodes":[
				0,
				1,
				2,
				3,
				4
			]
		}
	],
	"nodes":[
		{
			"mesh":0,
			"name":"cloth_low",
			"rotation":[
				0.70710688829422,
				0,
				0,
				0.7071066498756409
			],
			"scale":[
				0.7428442239761353,
				0.7428442239761353,
				0.7428442239761353
			],
			"translation":[
				0,
				3.159965753555298,
				0
			]
		},
		{
			"mesh":1,
			"name":"body _low",
			"rotation":[
				0.70710688829422,
				0,
				0,
				0.7071066498756409
			],
			"scale":[
				0.7428442239761353,
				0.7428442239761353,
				0.7428442239761353
			],
			"translation":[
				0,
				3.159965753555298,
				0
			]
		},
		{
			"mesh":2,
			"name":"hood_low ",
			"rotation":[
				0.70710688829422,
				0,
				0,
				0.7071066498756409
			],
			"scale":[
				0.7428442239761353,
				0.7428442239761353,
				0.7428442239761353
			],
			"translation":[
				0,
				3.159965753555298,
				0
			]
		},
		{
			"mesh":3,
			"name":"Rock_low",
			"rotation":[
				0.70710688829422,
				0,
				0,
				0.7071066498756409
			],
			"scale":[
				0.7428442239761353,
				0.7428442239761353,
				0.7428442239761353
			],
			"translation":[
				0,
				3.159965753555298,
				0
			]
		},
		{
			"mesh":4,
			"name":"jewercloth_low",
			"rotation":[
				0.70710688829422,
				0,
				0,
				0.7071066498756409
			],
			"scale":[
				0.7428442239761353,
				0.7428442239761353,
				0.7428442239761353
			],
			"translation":[
				0,
				3.159965753555298,
				0
			]
		}
	],
	"materials":[
		{
			"doubleSided":true,
			"emissiveFactor":[
				1,
				1,
				1
			],
			"extensions":{
				"KHR_materials_specular":{
					"specularColorFactor":[
						2.371357614441398,
						2.371357614441398,
						2.371357614441398
					]
				},
				"KHR_materials_ior":{
					"ior":1.4500000476837158
				}
			},
			"name":"jewer.001",
			"pbrMetallicRoughness":{}
		}
	],
	"meshes":[
		{
			"name":"cloth_low",
			"primitives":[
				{
					"attributes":{
						"COLOR_0":0,
						"POSITION":1,
						"NORMAL":2,
						"TEXCOORD_0":3
					},
					"indices":4
				}
			]
		},
		{
			"name":"bodycloth_low",
			"primitives":[
				{
					"attributes":{
						"COLOR_0":5,
						"POSITION":6,
						"NORMAL":7,
						"TEXCOORD_0":8
					},
					"indices":9
				}
			]
		},
		{
			"name":"hood_low.002",
			"primitives":[
				{
					"attributes":{
						"POSITION":10,
						"NORMAL":11,
						"TEXCOORD_0":12
					},
					"indices":13
				}
			]
		},
		{
			"name":"Rock_01",
			"primitives":[
				{
					"attributes":{
						"POSITION":14,
						"NORMAL":15,
						"TEXCOORD_0":16
					},
					"indices":17
				}
			]
		},
		{
			"name":"jewercloth_low",
			"primitives":[
				{
					"attributes":{
						"POSITION":18,
						"NORMAL":19,
						"TEXCOORD_0":20
					},
					"indices":21,
					"material":0
				}
			]
		}
	],
	"accessors":[
		{
			"bufferView":0,
			"componentType":5123,
			"count":20414,
			"normalized":true,
			"type":"VEC4"
		},
		{
			"bufferView":1,
			"componentType":5126,
			"count":20414,
			"max":[
				1.068203330039978,
				1.4623961448669434,
				4.916891098022461
			],
			"min":[
				-0.8769540786743164,
				-0.8865603804588318,
				0.9089658260345459
			],
			"type":"VEC3"
		},
		{
			"bufferView":2,
			"componentType":5126,
			"count":20414,
			"type":"VEC3"
		},
		{
			"bufferView":3,
			"componentType":5126,
			"count":20414,
			"type":"VEC2"
		},
		{
			"bufferView":4,
			"componentType":5123,
			"count":106983,
			"type":"SCALAR"
		},
		{
			"bufferView":5,
			"componentType":5123,
			"count":5315,
			"normalized":true,
			"type":"VEC4"
		},
		{
			"bufferView":6,
			"componentType":5126,
			"count":5315,
			"max":[
				0.9476724863052368,
				1.9676783084869385,
				4.096716403961182
			],
			"min":[
				-1.0210576057434082,
				-0.7772200107574463,
				1.445112943649292
			],
			"type":"VEC3"
		},
		{
			"bufferView":7,
			"componentType":5126,
			"count":5315,
			"type":"VEC3"
		},
		{
			"bufferView":8,
			"componentType":5126,
			"count":5315,
			"type":"VEC2"
		},
		{
			"bufferView":9,
			"componentType":5123,
			"count":27504,
			"type":"SCALAR"
		},
		{
			"bufferView":10,
			"componentType":5126,
			"count":2235,
			"max":[
				1.9331059455871582,
				2.9624109268188477,
				1.5468034744262695
			],
			"min":[
				-1.8296780586242676,
				-0.995426595211029,
				-1.3993935585021973
			],
			"type":"VEC3"
		},
		{
			"bufferView":11,
			"componentType":5126,
			"count":2235,
			"type":"VEC3"
		},
		{
			"bufferView":12,
			"componentType":5126,
			"count":2235,
			"type":"VEC2"
		},
		{
			"bufferView":13,
			"componentType":5123,
			"count":12363,
			"type":"SCALAR"
		},
		{
			"bufferView":14,
			"componentType":5126,
			"count":2125,
			"max":[
				3.1229193210601807,
				2.44968318939209,
				10.211122512817383
			],
			"min":[
				-3.0559561252593994,
				-4.916576862335205,
				3.860553503036499
			],
			"type":"VEC3"
		},
		{
			"bufferView":15,
			"componentType":5126,
			"count":2125,
			"type":"VEC3"
		},
		{
			"bufferView":16,
			"componentType":5126,
			"count":2125,
			"type":"VEC2"
		},
		{
			"bufferView":17,
			"componentType":5123,
			"count":11586,
			"type":"SCALAR"
		},
		{
			"bufferView":18,
			"componentType":5126,
			"count":9258,
			"max":[
				0.5259393453598022,
				1.0699846744537354,
				2.136026620864868
			],
			"min":[
				-0.25145259499549866,
				0.24165207147598267,
				0.8771069049835205
			],
			"type":"VEC3"
		},
		{
			"bufferView":19,
			"componentType":5126,
			"count":9258,
			"type":"VEC3"
		},
		{
			"bufferView":20,
			"componentType":5126,
			"count":9258,
			"type":"VEC2"
		},
		{
			"bufferView":21,
			"componentType":5123,
			"count":43848,
			"type":"SCALAR"
		}
	],
	"bufferViews":[
		{
			"buffer":0,
			"byteLength":163312,
			"byteOffset":0,
			"target":34962
		},
		{
			"buffer":0,
			"byteLength":244968,
			"byteOffset":163312,
			"target":34962
		},
		{
			"buffer":0,
			"byteLength":244968,
			"byteOffset":408280,
			"target":34962
		},
		{
			"buffer":0,
			"byteLength":163312,
			"byteOffset":653248,
			"target":34962
		},
		{
			"buffer":0,
			"byteLength":213966,
			"byteOffset":816560,
			"target":34963
		},
		{
			"buffer":0,
			"byteLength":42520,
			"byteOffset":1030528,
			"target":34962
		},
		{
			"buffer":0,
			"byteLength":63780,
			"byteOffset":1073048,
			"target":34962
		},
		{
			"buffer":0,
			"byteLength":63780,
			"byteOffset":1136828,
			"target":34962
		},
		{
			"buffer":0,
			"byteLength":42520,
			"byteOffset":1200608,
			"target":34962
		},
		{
			"buffer":0,
			"byteLength":55008,
			"byteOffset":1243128,
			"target":34963
		},
		{
			"buffer":0,
			"byteLength":26820,
			"byteOffset":1298136,
			"target":34962
		},
		{
			"buffer":0,
			"byteLength":26820,
			"byteOffset":1324956,
			"target":34962
		},
		{
			"buffer":0,
			"byteLength":17880,
			"byteOffset":1351776,
			"target":34962
		},
		{
			"buffer":0,
			"byteLength":24726,
			"byteOffset":1369656,
			"target":34963
		},
		{
			"buffer":0,
			"byteLength":25500,
			"byteOffset":1394384,
			"target":34962
		},
		{
			"buffer":0,
			"byteLength":25500,
			"byteOffset":1419884,
			"target":34962
		},
		{
			"buffer":0,
			"byteLength":17000,
			"byteOffset":1445384,
			"target":34962
		},
		{
			"buffer":0,
			"byteLength":23172,
			"byteOffset":1462384,
			"target":34963
		},
		{
			"buffer":0,
			"byteLength":111096,
			"byteOffset":1485556,
			"target":34962
		},
		{
			"buffer":0,
			"byteLength":111096,
			"byteOffset":1596652,
			"target":34962
		},
		{
			"buffer":0,
			"byteLength":74064,
			"byteOffset":1707748,
			"target":34962
		},
		{
			"buffer":0,
			"byteLength":87696,
			"byteOffset":1781812,
			"target":34963
		}
	],
	"buffers":[
		{
			"byteLength":1869508,
			"uri":"mmk.bin"
		}
	]
}
